{
	"asset":{
		"generator":"Khronos glTF Blender I/O v4.1.62",
		"version":"2.0"
	},
	"scene":0,
	"scenes":[
		{
			"name":"Scene",
			"nodes":[
				0
			]
		}
	],
	"nodes":[
		{
			"mesh":0,
			"name":"priest-chat_logo"
		}
	],
	"materials":[
		{
			"doubleSided":true,
			"name":"Material",
			"pbrMetallicRoughness":{
				"baseColorFactor":[
					0.800000011920929,
					0.800000011920929,
					0.800000011920929,
					1
				],
				"metallicFactor":0,
				"roughnessFactor":0.5
			}
		},
		{
			"doubleSided":true,
			"name":"Material.001",
			"pbrMetallicRoughness":{
				"baseColorFactor":[
					0.8002194166183472,
					0.2701093554496765,
					0,
					1
				],
				"metallicFactor":0,
				"roughnessFactor":0.5
			}
		}
	],
	"meshes":[
		{
			"name":"Curve.027",
			"primitives":[
				{
					"attributes":{
						"POSITION":0,
						"NORMAL":1,
						"TEXCOORD_0":2
					},
					"indices":3,
					"material":0
				},
				{
					"attributes":{
						"POSITION":4,
						"NORMAL":5,
						"TEXCOORD_0":6
					},
					"indices":7,
					"material":1
				}
			]
		}
	],
	"accessors":[
		{
			"bufferView":0,
			"componentType":5126,
			"count":8887,
			"max":[
				0.17802581191062927,
				0.005000084172934294,
				0.06803154945373535
			],
			"min":[
				-0.11713380366563797,
				-0.004999920260161161,
				-0.07661078870296478
			],
			"type":"VEC3"
		},
		{
			"bufferView":1,
			"componentType":5126,
			"count":8887,
			"type":"VEC3"
		},
		{
			"bufferView":2,
			"componentType":5126,
			"count":8887,
			"type":"VEC2"
		},
		{
			"bufferView":3,
			"componentType":5123,
			"count":18000,
			"type":"SCALAR"
		},
		{
			"bufferView":4,
			"componentType":5126,
			"count":1036,
			"max":[
				0.18202589452266693,
				0,
				0.0729200541973114
			],
			"min":[
				-0.12063728272914886,
				-0.014999999664723873,
				-0.08071781694889069
			],
			"type":"VEC3"
		},
		{
			"bufferView":5,
			"componentType":5126,
			"count":1036,
			"type":"VEC3"
		},
		{
			"bufferView":6,
			"componentType":5126,
			"count":1036,
			"type":"VEC2"
		},
		{
			"bufferView":7,
			"componentType":5123,
			"count":3096,
			"type":"SCALAR"
		}
	],
	"bufferViews":[
		{
			"buffer":0,
			"byteLength":106644,
			"byteOffset":0,
			"target":34962
		},
		{
			"buffer":0,
			"byteLength":106644,
			"byteOffset":106644,
			"target":34962
		},
		{
			"buffer":0,
			"byteLength":71096,
			"byteOffset":213288,
			"target":34962
		},
		{
			"buffer":0,
			"byteLength":36000,
			"byteOffset":284384,
			"target":34963
		},
		{
			"buffer":0,
			"byteLength":12432,
			"byteOffset":320384,
			"target":34962
		},
		{
			"buffer":0,
			"byteLength":12432,
			"byteOffset":332816,
			"target":34962
		},
		{
			"buffer":0,
			"byteLength":8288,
			"byteOffset":345248,
			"target":34962
		},
		{
			"buffer":0,
			"byteLength":6192,
			"byteOffset":353536,
			"target":34963
		}
	],
	"buffers":[
		{
			"byteLength":359728,
			"uri":"pc-logo.bin"
		}
	]
}
